<?xml version="1.0" standalone="no"?>
<!DOCTYPE svg PUBLIC "-//W3C//DTD SVG 20010904//EN"
 "http://www.w3.org/TR/2001/REC-SVG-20010904/DTD/svg10.dtd">
<svg version="1.0" xmlns="http://www.w3.org/2000/svg"
 width="2898.000000pt" height="2898.000000pt" viewBox="0 0 2898.000000 2898.000000"
 preserveAspectRatio="xMidYMid meet">
<metadata>
Created by potrace 1.14, written by Peter Selinger 2001-2017
</metadata>
<g transform="translate(0.000000,2898.000000) scale(0.100000,-0.100000)"
fill="#000000" stroke="none">
<path d="M16555 27889 c-866 -55 -1640 -315 -2214 -744 -464 -347 -808 -859
-910 -1356 -45 -218 -45 -201 -45 -2719 l-1 -2395 -38 -40 c-99 -103 -474
-584 -620 -796 -37 -53 -74 -99 -82 -103 -19 -7 -19 85 -23 3339 -1 1582 -6
2493 -13 2550 -64 573 -384 1112 -904 1526 -155 123 -380 261 -560 344 -432
198 -804 306 -1270 366 -196 26 -711 37 -940 20 -756 -55 -1492 -256 -2248
-612 -423 -199 -730 -383 -1095 -656 -419 -314 -813 -701 -1148 -1128 -193
-246 -257 -386 -256 -555 3 -326 172 -538 470 -590 143 -25 322 31 452 142 36
31 100 98 142 149 42 52 113 138 157 191 44 54 83 93 86 88 4 -6 11 -8 16 -4
6 4 6 10 -1 19 -7 9 -6 16 3 24 11 9 14 6 13 -12 -2 -28 -15 -49 -26 -42 -4 3
-6 -4 -3 -15 3 -12 0 -20 -6 -20 -7 0 -10 -4 -7 -9 3 -5 -5 -20 -18 -34 -13
-14 -21 -28 -18 -31 3 -3 0 -6 -7 -6 -7 0 -10 -4 -6 -9 3 -6 -1 -14 -10 -18
-8 -5 -16 -19 -18 -31 -2 -12 -9 -28 -15 -34 -7 -7 -12 -20 -12 -29 0 -9 -7
-22 -15 -29 -10 -8 -12 -17 -6 -24 6 -7 6 -17 1 -26 -13 -20 -12 -30 1 -30 5
0 8 4 5 9 -3 5 2 15 12 22 16 13 16 12 3 -4 -13 -16 -13 -19 0 -17 7 1 21 2
29 1 12 -1 11 -4 -3 -12 -14 -8 -16 -14 -6 -25 9 -11 8 -14 -4 -14 -16 0 -31
-27 -19 -33 8 -5 40 -2 58 4 7 2 13 0 13 -5 1 -6 -6 -11 -15 -12 -9 -1 -19 -6
-22 -10 -4 -4 1 -4 10 -1 13 4 16 1 14 -17 -1 -12 -5 -27 -9 -33 -5 -7 5 -10
28 -7 20 1 33 0 31 -4 -3 -5 0 -14 6 -22 8 -12 9 -12 4 3 -4 11 0 17 11 17 14
0 14 2 -2 14 -11 8 -27 13 -36 11 -24 -5 -31 21 -11 37 15 12 16 11 3 -4 -12
-16 -11 -18 3 -18 27 0 73 -34 68 -50 -3 -8 5 -3 17 13 13 15 27 25 32 22 5
-4 9 -2 9 4 0 5 -6 12 -12 15 -7 4 -3 4 10 2 14 -3 22 1 22 11 0 8 -5 11 -12
7 -6 -4 -8 -3 -5 4 4 5 17 8 29 4 13 -3 19 -1 15 5 -8 12 20 26 34 17 5 -3 8
0 7 8 -2 7 3 12 10 10 8 -1 11 2 7 8 -3 5 -1 10 5 10 6 0 8 5 5 10 -3 6 -2 10
3 10 6 0 44 33 86 73 42 41 78 72 81 69 3 -3 5 0 5 7 0 7 5 9 10 6 6 -3 10 1
10 9 0 9 9 21 20 28 11 7 20 20 21 28 0 10 2 11 6 3 2 -7 9 -13 14 -13 6 0 7
5 4 10 -7 11 65 83 74 75 9 -9 -36 -60 -52 -59 -9 1 -13 -4 -11 -11 3 -6 -2
-18 -10 -25 -9 -7 -13 -17 -9 -24 3 -6 3 -8 -2 -4 -11 11 -36 -12 -28 -26 3
-6 3 -8 -1 -4 -8 6 -76 -63 -76 -77 0 -4 -11 -16 -25 -27 -14 -11 -23 -23 -21
-27 3 -4 -6 -15 -19 -25 -14 -10 -22 -22 -20 -27 3 -4 -5 -15 -17 -24 -13 -8
-22 -18 -20 -20 5 -10 -56 -84 -63 -77 -5 4 -5 2 -2 -4 4 -6 -4 -23 -18 -38
-13 -14 -22 -26 -19 -26 3 0 -6 -15 -19 -32 -43 -57 -169 -269 -218 -368 -52
-104 -135 -303 -164 -390 -10 -30 -20 -59 -24 -65 -3 -5 -6 -14 -8 -20 -1 -5
-9 -35 -18 -65 -9 -30 -18 -64 -20 -75 -5 -23 -33 -158 -40 -193 -9 -49 -25
-213 -31 -327 l-6 -120 163 -39 c90 -22 191 -47 224 -57 33 -9 112 -31 175
-49 313 -87 610 -182 930 -298 236 -86 308 -116 455 -188 488 -240 760 -440
1110 -814 348 -372 573 -903 605 -1425 5 -82 10 -896 10 -1807 l0 -1657 51
-98 c155 -294 159 -307 159 -454 0 -321 -185 -562 -497 -651 -111 -31 -280
-31 -376 0 -239 77 -408 242 -469 457 -32 116 -32 291 0 395 30 93 61 155 125
249 50 72 51 76 58 165 3 50 7 306 8 568 2 536 11 480 -79 493 -96 14 -238 57
-306 94 -215 116 -362 241 -1064 902 -91 85 -241 225 -333 310 -404 371 -406
372 -515 389 -48 8 -228 10 -554 7 -528 -4 -546 -6 -732 -68 -272 -90 -469
-249 -947 -759 -85 -90 -188 -201 -229 -245 -42 -44 -143 -154 -225 -245 -83
-91 -188 -205 -235 -255 -47 -49 -115 -124 -150 -165 -36 -41 -67 -77 -70 -80
-23 -23 -169 -191 -219 -252 -35 -43 -65 -78 -66 -78 -6 0 -150 247 -196 335
-104 197 -239 533 -239 593 0 14 12 41 27 61 122 162 912 1001 1309 1391 276
271 393 361 624 483 213 113 406 179 650 223 141 25 159 26 680 31 694 6 790
-5 1035 -122 189 -90 325 -195 662 -508 459 -426 800 -737 883 -807 85 -70
177 -122 237 -133 l31 -6 6 102 c9 163 13 982 5 1089 -10 131 -39 231 -109
373 -103 211 -234 397 -395 564 -278 288 -629 479 -1280 697 -192 64 -572 176
-720 212 -458 113 -967 141 -1345 76 -407 -70 -786 -254 -1116 -540 -34 -29
-65 -50 -69 -46 -5 4 -5 2 -2 -4 8 -14 -17 -37 -28 -26 -5 4 -5 2 -2 -4 8 -14
-17 -37 -27 -26 -4 4 -6 0 -4 -8 2 -8 -3 -14 -10 -12 -8 1 -11 -2 -8 -7 3 -5
-23 -35 -59 -67 -35 -31 -61 -62 -58 -67 3 -6 1 -7 -5 -3 -7 4 -12 1 -12 -6 0
-7 -17 -28 -37 -47 -21 -18 -29 -28 -18 -21 11 7 2 -4 -19 -24 -22 -20 -35
-36 -30 -36 4 0 -2 -7 -14 -16 -12 -8 -22 -20 -22 -25 0 -6 -10 -20 -23 -31
-12 -11 -15 -16 -7 -12 8 4 -2 -10 -23 -30 -21 -21 -34 -42 -31 -49 4 -7 4 -9
-1 -5 -5 5 -19 -8 -32 -27 -13 -19 -28 -35 -34 -35 -6 0 -8 -4 -5 -8 7 -11
-38 -62 -55 -62 -8 0 -4 8 9 21 12 11 19 25 16 31 -4 6 -3 8 3 5 10 -6 28 19
25 35 -1 4 7 12 18 18 11 6 18 15 15 21 -4 5 -1 9 4 9 6 0 10 3 10 8 -3 19 2
33 11 27 6 -3 10 -1 10 5 0 6 6 18 13 25 32 36 39 47 33 52 -3 3 6 14 19 25
14 10 24 22 22 26 -2 9 75 112 85 112 4 0 8 5 8 11 0 7 10 20 22 30 11 11 18
19 15 19 -4 0 1 8 10 18 10 10 31 34 46 53 15 19 39 48 53 64 14 17 38 48 52
70 15 22 34 47 42 55 13 12 13 13 1 5 -22 -15 -2 16 21 33 15 11 16 17 8 27
-6 8 -19 11 -28 8 -13 -4 -12 -2 3 10 11 9 15 17 8 17 -7 0 -13 5 -13 11 0 8
5 8 15 -1 8 -7 12 -16 9 -21 -3 -5 -1 -9 5 -9 5 0 13 5 16 10 3 6 2 10 -4 10
-6 0 -9 6 -7 13 1 6 1 8 -2 4 -2 -4 -10 -3 -18 4 -8 6 -14 8 -14 3 0 -5 -4 -2
-9 5 -6 9 -6 22 0 33 8 14 6 16 -7 11 -11 -4 -15 -3 -10 5 7 11 -22 9 -47 -3
-6 -4 -4 0 6 8 14 11 15 16 5 20 -9 4 -10 6 -1 6 7 1 10 8 6 17 -5 13 -7 13
-14 2 -6 -9 -9 -9 -9 -1 0 6 4 14 9 18 12 7 33 -29 24 -39 -3 -3 -1 -6 6 -6 9
0 11 6 6 18 -18 42 -17 52 1 53 11 0 14 3 6 6 -7 3 -20 -1 -30 -9 -15 -11 -16
-11 -5 3 7 9 9 20 5 24 -4 5 -2 6 3 3 6 -3 18 10 27 29 l16 35 -22 -22 -23
-21 4 25 c3 14 9 23 14 20 5 -3 9 0 9 6 0 6 5 8 10 5 16 -10 11 1 -7 16 -11
10 -14 10 -9 2 4 -8 2 -13 -4 -13 -7 0 -10 6 -7 14 3 7 1 18 -5 24 -6 6 -6 12
3 17 7 5 10 4 6 -1 -3 -6 4 -16 16 -24 19 -12 20 -11 10 2 -9 10 -9 18 -2 25
8 8 7 13 -2 18 -8 5 -10 4 -5 -3 5 -8 -2 -11 -23 -8 -23 2 -40 -6 -78 -39 -38
-34 -53 -41 -66 -34 -11 7 -17 6 -17 -1 0 -5 5 -10 12 -10 6 0 3 -7 -8 -15
-10 -8 -23 -14 -29 -14 -5 0 -1 6 9 14 11 8 15 15 10 15 -17 0 -34 -23 -34
-44 0 -17 -2 -18 -10 -6 -9 14 -14 7 -11 -13 1 -5 -4 -5 -10 -1 -9 5 -10 2 -6
-9 3 -9 1 -19 -5 -23 -7 -5 -8 -2 -3 6 5 8 3 11 -6 8 -8 -3 -13 -12 -11 -19 2
-8 0 -11 -4 -6 -4 4 -17 -1 -28 -10 -11 -10 9 15 44 55 35 39 68 72 74 72 5 0
6 3 3 7 -10 10 209 228 358 357 289 250 472 368 875 564 118 57 302 146 408
198 219 106 301 156 388 237 143 132 226 356 195 524 -32 178 -170 357 -332
432 -105 48 -158 61 -251 61 -84 -1 -149 -15 -263 -58 -160 -60 -655 -301
-913 -444 -586 -327 -1148 -826 -1583 -1408 -349 -466 -663 -1104 -814 -1655
-150 -549 -199 -898 -198 -1425 1 -408 34 -703 119 -1075 102 -446 238 -774
517 -1248 64 -109 117 -202 117 -207 0 -5 5 -10 11 -12 6 -2 -22 -32 -61 -67
-201 -179 -331 -468 -430 -961 -104 -514 -118 -1133 -40 -1780 87 -721 318
-1541 620 -2200 268 -585 672 -1221 1134 -1780 132 -160 556 -590 736 -747
195 -170 502 -401 757 -571 162 -108 570 -344 761 -439 86 -43 159 -81 160
-86 2 -4 7 -5 11 -2 4 2 18 -42 30 -98 29 -130 115 -390 176 -532 218 -508
634 -1120 1325 -1950 184 -222 357 -399 549 -565 435 -374 1017 -650 1624
-769 310 -61 535 -81 926 -83 l288 -2 -46 -45 c-178 -176 -176 -492 5 -676
114 -116 261 -151 433 -105 128 35 498 222 1016 515 94 52 227 124 296 159
l125 64 -7 -51 c-13 -97 -10 -458 5 -577 44 -349 174 -636 405 -890 222 -245
551 -417 879 -461 172 -23 400 3 597 67 448 148 829 537 974 996 35 112 36
114 57 253 18 120 24 495 10 619 l-8 69 49 -36 c63 -48 250 -160 388 -232 61
-32 205 -110 320 -173 116 -63 282 -151 370 -194 299 -147 402 -174 542 -143
43 10 100 29 127 42 108 55 203 188 227 318 29 156 -43 360 -158 449 l-48 37
75 -6 c146 -13 636 25 905 70 220 38 446 102 672 191 718 283 1233 714 1719
1439 244 364 494 795 685 1179 54 111 107 213 117 228 l17 28 132 0 c102 0
135 -3 146 -15 8 -8 17 -12 20 -9 7 7 120 -123 226 -261 51 -66 143 -182 204
-258 62 -77 116 -148 120 -160 4 -12 3 -63 -4 -115 -15 -123 -7 -251 21 -324
30 -80 73 -142 275 -388 97 -118 245 -305 330 -415 257 -335 544 -704 655
-840 172 -213 528 -662 738 -933 108 -140 266 -342 350 -450 169 -218 273
-351 377 -487 141 -185 171 -223 261 -325 404 -461 835 -715 1417 -835 181
-38 325 -48 577 -42 169 4 255 10 345 26 450 82 756 218 1087 484 228 183 460
483 585 756 38 82 110 268 124 316 4 17 13 48 19 70 6 22 13 51 16 65 2 14 9
39 14 55 9 33 20 93 25 140 2 17 9 78 16 138 15 132 7 438 -16 587 -64 419
-232 834 -481 1180 -37 52 -154 205 -258 340 -105 135 -260 335 -345 445 -85
110 -216 276 -290 369 -312 388 -439 549 -542 683 -92 121 -247 318 -474 603
-29 36 -103 130 -165 210 -63 80 -155 195 -205 255 -50 61 -165 205 -255 320
-229 295 -308 383 -422 470 -65 49 -181 109 -251 131 -50 16 -64 25 -90 64
-41 61 -300 405 -462 615 -168 218 -324 435 -353 491 -11 20 5 36 196 206 322
287 599 594 926 1028 327 434 489 691 729 1160 151 294 253 524 347 785 10 28
21 59 26 70 4 11 8 25 10 30 1 6 23 69 49 140 149 418 292 1025 354 1505 42
326 46 396 46 880 0 576 -15 772 -96 1253 -106 636 -245 1116 -464 1612 -90
204 -89 196 -74 343 20 208 1 640 -42 942 -148 1046 -596 2014 -1277 2761
-522 572 -996 914 -1687 1216 -290 127 -420 165 -569 164 -166 -1 -301 -54
-406 -160 -87 -87 -137 -166 -173 -270 -26 -76 -29 -94 -23 -159 17 -202 96
-346 249 -455 93 -67 160 -97 412 -187 482 -172 758 -338 1110 -667 231 -216
466 -487 622 -718 129 -191 313 -554 313 -618 0 -5 -28 15 -61 45 -125 108
-195 160 -356 260 -91 57 -217 145 -281 196 -150 120 -220 141 -265 80 -19
-25 -19 -30 -6 -55 8 -15 64 -79 124 -143 61 -64 189 -206 285 -316 654 -745
1029 -1311 1357 -2049 152 -342 227 -548 338 -936 221 -772 307 -1425 292
-2209 -15 -720 -100 -1248 -316 -1940 -140 -452 -174 -537 -411 -1035 -141
-296 -359 -654 -588 -965 -281 -382 -728 -856 -1096 -1163 -518 -433 -1050
-759 -1748 -1071 -564 -251 -1163 -416 -1818 -500 -146 -19 -292 -29 -235 -17
70 16 118 22 194 27 40 2 79 7 84 11 10 6 56 12 120 16 9 1 17 4 17 8 0 3 10
6 23 6 55 -1 88 4 83 11 -2 4 7 9 21 10 14 1 31 6 37 11 6 5 27 11 46 14 34 5
110 27 315 89 388 118 1013 371 1405 569 172 87 506 275 602 340 80 54 395
290 514 386 304 242 680 614 899 888 90 112 393 547 490 704 379 612 716 1504
844 2241 75 428 112 1028 81 1297 -41 355 -141 802 -251 1127 -60 175 -105
248 -123 200 -3 -8 -1 -14 3 -14 5 0 7 -9 4 -20 -3 -13 0 -20 8 -20 10 0 10
-3 1 -12 -21 -21 -13 -32 10 -12 l21 19 -18 -28 c-17 -26 -17 -27 1 -20 17 6
17 5 5 -10 -10 -13 -10 -17 -1 -17 9 0 9 -4 3 -12 -11 -14 -13 -48 -4 -48 3 0
6 -13 6 -30 1 -18 -4 -30 -12 -30 -7 0 -13 10 -12 23 2 67 -45 326 -101 561
-167 700 -382 1236 -738 1846 -272 466 -705 1008 -1088 1362 -503 465 -877
721 -1509 1033 -355 175 -728 312 -1130 414 -491 124 -897 178 -1420 188 -490
10 -851 -26 -1340 -134 -293 -65 -676 -182 -955 -293 -337 -133 -767 -359
-1096 -576 -652 -430 -1242 -1025 -1706 -1724 -421 -634 -698 -1291 -872
-2065 -222 -992 -182 -2216 104 -3205 81 -280 190 -587 285 -800 209 -468 493
-938 799 -1320 340 -425 647 -735 1036 -1047 240 -192 607 -434 884 -582 54
-29 142 -81 195 -116 110 -72 278 -166 501 -282 323 -167 424 -229 638 -392
500 -380 516 -391 647 -456 154 -76 189 -88 315 -108 152 -25 250 -29 682 -31
223 0 404 -4 402 -8 -2 -4 -12 -6 -22 -6 -9 0 -147 -5 -307 -11 -448 -19 -821
4 -1270 80 -546 91 -900 187 -1351 365 -612 241 -1067 500 -1714 973 -280 205
-653 546 -914 836 -699 776 -1150 1548 -1456 2490 -304 939 -411 1966 -314
3000 17 187 40 371 53 435 6 25 13 68 16 95 4 28 13 79 20 115 32 149 59 268
72 320 8 30 23 87 33 125 16 64 28 107 73 265 60 211 153 465 267 730 107 250
146 329 271 552 208 372 382 640 573 883 65 83 146 186 181 230 118 151 411
470 577 627 298 284 569 502 893 718 244 162 254 174 235 268 -26 127 -92 199
-191 208 -48 4 -64 0 -149 -40 -52 -24 -99 -41 -103 -37 -18 18 -30 150 -31
346 -1 199 0 215 26 310 98 361 211 504 978 1235 415 395 487 461 617 559 85
64 90 71 144 173 62 120 93 163 159 227 178 172 455 250 684 191 96 -24 218
-84 295 -145 115 -91 235 -268 267 -398 26 -104 24 -287 -4 -387 -75 -269
-258 -470 -507 -557 -73 -25 -93 -28 -220 -28 -116 0 -156 4 -231 24 -60 15
-97 20 -107 14 -42 -23 -1016 -1004 -1038 -1045 -12 -21 -7 -226 8 -354 l5
-51 52 34 c139 94 619 305 916 403 496 165 652 211 1109 325 630 157 713 199
1011 509 96 99 396 404 666 676 271 272 505 515 520 539 48 73 112 174 134
211 33 57 45 75 52 80 4 4 11 21 14 40 6 26 4 31 -6 25 -10 -6 -12 -4 -7 8 4
10 -3 23 -19 36 -16 13 -20 21 -12 24 10 4 10 6 1 6 -7 1 -13 7 -13 15 0 8 -8
21 -17 28 -10 7 -19 20 -21 28 -2 8 -10 19 -18 23 -8 5 -12 12 -9 17 3 4 -2
11 -11 14 -8 3 -12 11 -9 16 4 6 3 9 -2 8 -4 -2 -9 2 -11 7 -2 6 -10 14 -18
18 -8 5 -12 12 -9 18 5 8 -7 13 -27 11 -3 -1 -9 5 -12 13 -3 8 0 14 6 12 6 -1
13 5 15 13 3 9 1 11 -4 5 -10 -12 -39 -13 -50 -1 -4 5 -3 6 5 2 16 -10 15 2
-2 20 -17 16 -30 19 -21 4 10 -16 -1 -11 -16 7 -10 11 -10 14 -1 9 16 -10 15
2 -2 20 -11 11 -16 11 -19 1 -3 -6 -6 4 -6 23 0 35 0 35 16 13 8 -13 21 -23
27 -23 6 0 20 -13 30 -28 10 -16 28 -33 40 -38 12 -5 20 -16 18 -24 -2 -8 0
-12 4 -7 10 10 175 -153 290 -287 52 -60 147 -188 211 -285 144 -219 231 -310
346 -366 140 -67 252 -70 395 -12 217 87 346 235 390 446 37 182 -36 375 -246
651 -376 492 -764 886 -1172 1190 -298 222 -602 407 -945 575 -271 133 -500
227 -791 323 -732 243 -1301 335 -2054 330 -124 0 -283 -5 -355 -9z m3690
-2338 c-6 -11 29 -34 38 -25 3 3 8 1 12 -5 3 -6 -1 -11 -10 -11 -10 0 -13 -5
-9 -12 4 -7 3 -8 -5 -4 -6 4 -9 11 -6 16 5 8 -23 25 -37 22 -13 -3 -9 16 5 21
18 8 19 8 12 -2z m92 -92 c1 -13 0 -18 -3 -11 -3 6 -11 9 -17 5 -7 -4 -5 2 3
12 8 10 10 16 4 12 -7 -4 -17 0 -24 8 -11 13 -9 14 11 7 15 -6 25 -18 26 -33z
m-13982 -349 c-10 -11 -25 -20 -34 -20 -11 1 -9 4 7 13 12 7 19 17 15 22 -4 4
-2 5 5 1 7 -4 12 -2 12 5 0 7 3 9 7 6 3 -4 -2 -16 -12 -27z m-45 -33 c0 -2
-10 -12 -21 -23 -22 -19 -22 -19 -8 4 12 19 29 30 29 19z m-51 -50 c-2 -1 -13
-9 -24 -17 -19 -14 -19 -14 -6 3 7 9 18 17 24 17 6 0 8 -1 6 -3z m-54 -47 c-3
-5 -12 -10 -18 -10 -7 0 -6 4 3 10 19 12 23 12 15 0z m-60 -57 c-22 -20 -52
-49 -66 -65 -21 -22 -28 -25 -33 -13 -3 8 0 14 7 12 7 -1 11 4 10 11 -2 6 4
12 13 12 9 0 12 5 8 13 -4 6 -4 9 0 5 8 -7 13 -4 60 37 45 39 46 29 1 -12z
m-758 -307 c0 -8 -6 -12 -14 -9 -7 3 -10 9 -7 14 8 14 21 11 21 -5z m47 -116
c-14 -14 -56 -22 -49 -9 4 5 11 7 16 4 5 -4 9 -1 9 4 0 6 8 11 17 11 12 0 14
-3 7 -10z m45 -4 c9 -11 9 -16 -1 -22 -7 -4 -10 -4 -6 1 4 4 3 14 -3 22 -6 7
-9 13 -6 13 2 0 10 -6 16 -14z m41 -60 c-7 -7 -13 -7 -20 0 -6 6 -3 10 10 10
13 0 16 -4 10 -10z m30 -16 c0 -5 -4 -10 -10 -10 -5 0 -10 5 -10 10 0 6 5 10
10 10 6 0 10 -4 10 -10z m-2883 -2845 c0 -8 -4 -12 -9 -9 -5 3 -6 10 -3 15 9
13 12 11 12 -6z m-294 -236 c4 -15 2 -18 -7 -10 -7 6 -17 7 -22 3 -4 -4 -2 1
5 11 17 21 18 21 24 -4z m-33 -38 c-7 -14 -6 -21 3 -24 6 -3 2 -6 -11 -6 -13
-1 -20 -5 -17 -11 4 -6 -1 -7 -11 -3 -12 4 -15 3 -10 -5 4 -7 1 -12 -9 -12
-10 0 -13 -5 -9 -12 5 -7 3 -8 -6 -3 -10 6 -7 14 14 32 15 12 24 23 20 23 -4
0 1 9 11 20 23 25 39 26 25 1z m371 1 c-9 -3 -8 -10 3 -27 12 -19 13 -26 3
-31 -6 -4 -9 -4 -5 1 4 4 3 14 -2 21 -6 6 -13 21 -15 32 -3 16 0 19 13 15 11
-5 12 -8 3 -11z m59 -96 c0 -2 -7 -6 -15 -10 -8 -3 -15 -1 -15 4 0 6 7 10 15
10 8 0 15 -2 15 -4z m-572 -826 c-7 -10 -14 -18 -15 -16 -6 6 9 36 18 36 5 0
4 -9 -3 -20z m-34 -54 c-3 -9 -10 -13 -15 -10 -5 3 -3 11 4 19 15 16 19 13 11
-9z m22987 -3539 c-10 -9 -11 -8 -5 6 3 10 9 15 12 12 3 -3 0 -11 -7 -18z m9
-282 l-8 -40 -1 50 c-1 29 3 45 8 40 5 -6 6 -28 1 -50z m7 -132 c-2 -16 -4 -3
-4 27 0 30 2 43 4 28 2 -16 2 -40 0 -55z"/>
<path d="M5383 24553 c-7 -2 -13 -11 -13 -19 0 -8 -5 -14 -12 -14 -6 0 -9 -3
-5 -6 3 -3 14 -1 24 5 10 6 14 11 9 11 -5 0 -3 7 4 15 13 16 13 16 -7 8z"/>
<path d="M5430 24376 c0 -2 9 -6 20 -9 11 -3 18 -1 14 4 -5 9 -34 13 -34 5z"/>
<path d="M20863 23520 c-51 -12 -86 -44 -344 -315 -133 -140 -247 -255 -253
-256 -6 0 -21 -13 -34 -29 -23 -30 -19 -39 21 -45 12 -2 74 -13 137 -25 63
-11 138 -25 165 -30 28 -5 86 -16 130 -24 44 -9 154 -30 245 -47 91 -16 181
-34 200 -39 19 -5 55 -14 80 -19 87 -21 275 -74 285 -80 6 -4 24 -8 41 -10
l31 -2 -8 53 c-4 29 -10 80 -13 113 -16 173 -62 389 -127 598 -33 105 -44 129
-63 137 -12 4 -115 13 -227 18 -230 12 -222 12 -266 2z"/>
<path d="M2551 21534 c6 -7 16 -11 21 -8 11 7 3 17 -18 20 -12 2 -13 -1 -3
-12z"/>
<path d="M22270 3125 c0 -5 5 -17 10 -25 5 -8 10 -10 10 -5 0 6 -5 17 -10 25
-5 8 -10 11 -10 5z"/>
<path d="M22070 3060 c0 -5 5 -10 11 -10 5 0 7 5 4 10 -3 6 -8 10 -11 10 -2 0
-4 -4 -4 -10z"/>
<path d="M22409 2743 c-13 -16 -12 -17 4 -4 16 13 21 21 13 21 -2 0 -10 -8
-17 -17z"/>
<path d="M23246 2658 c3 -5 10 -6 15 -3 13 9 11 12 -6 12 -8 0 -12 -4 -9 -9z"/>
<path d="M3146 2538 c3 -5 10 -6 15 -3 13 9 11 12 -6 12 -8 0 -12 -4 -9 -9z"/>
<path d="M23265 1960 c-3 -6 1 -7 9 -4 18 7 21 14 7 14 -6 0 -13 -4 -16 -10z"/>
<path d="M23996 1738 c3 -5 10 -6 15 -3 13 9 11 12 -6 12 -8 0 -12 -4 -9 -9z"/>
<path d="M23875 1700 c3 -5 8 -10 11 -10 2 0 4 5 4 10 0 6 -5 10 -11 10 -5 0
-7 -4 -4 -10z"/>
<path d="M24110 1700 c0 -5 5 -10 11 -10 5 0 7 5 4 10 -3 6 -8 10 -11 10 -2 0
-4 -4 -4 -10z"/>
<path d="M23356 1587 c3 -10 9 -15 12 -12 3 3 0 11 -7 18 -10 9 -11 8 -5 -6z"/>
<path d="M23235 1540 c-3 -5 -1 -10 4 -10 6 0 11 5 11 10 0 6 -2 10 -4 10 -3
0 -8 -4 -11 -10z"/>
<path d="M23655 1521 c-3 -5 0 -13 6 -16 5 -4 8 -14 4 -22 -5 -13 -3 -14 10
-3 15 12 15 14 0 22 -8 5 -13 13 -10 19 4 5 4 9 1 9 -3 0 -7 -4 -11 -9z"/>
<path d="M23789 1503 c-13 -16 -12 -17 4 -4 9 7 17 15 17 17 0 8 -8 3 -21 -13z"/>
<path d="M23701 1494 c0 -11 3 -14 6 -6 3 7 2 16 -1 19 -3 4 -6 -2 -5 -13z"/>
<path d="M23755 1500 c3 -5 8 -10 11 -10 2 0 4 5 4 10 0 6 -5 10 -11 10 -5 0
-7 -4 -4 -10z"/>
<path d="M23635 1491 c-3 -5 -2 -12 3 -15 5 -3 9 1 9 9 0 17 -3 19 -12 6z"/>
<path d="M23775 1471 c-3 -5 -2 -12 3 -15 5 -3 9 1 9 9 0 17 -3 19 -12 6z"/>
<path d="M23673 1456 c-3 -6 -3 -8 2 -4 4 4 13 3 20 -2 8 -7 12 -5 12 3 0 16
-25 18 -34 3z"/>
<path d="M23750 1456 c0 -2 8 -10 18 -17 15 -13 16 -12 3 4 -13 16 -21 21 -21
13z"/>
<path d="M23598 1443 c7 -3 16 -2 19 1 4 3 -2 6 -13 5 -11 0 -14 -3 -6 -6z"/>
<path d="M23635 1443 c3 -3 0 -11 -5 -18 -7 -8 -5 -12 4 -12 14 0 16 22 3 32
-4 3 -5 2 -2 -2z"/>
<path d="M23833 1430 c1 -11 5 -20 9 -20 3 0 6 9 5 20 -1 11 -5 20 -9 20 -3 0
-6 -9 -5 -20z"/>
<path d="M23731 1424 c0 -11 3 -14 6 -6 3 7 2 16 -1 19 -3 4 -6 -2 -5 -13z"/>
<path d="M23745 1400 c-3 -6 1 -7 9 -4 18 7 21 14 7 14 -6 0 -13 -4 -16 -10z"/>
<path d="M23788 1403 c7 -3 16 -2 19 1 4 3 -2 6 -13 5 -11 0 -14 -3 -6 -6z"/>
<path d="M23865 1400 c-3 -6 1 -7 9 -4 18 7 21 14 7 14 -6 0 -13 -4 -16 -10z"/>
<path d="M23906 1397 c3 -10 9 -15 12 -12 3 3 0 11 -7 18 -10 9 -11 8 -5 -6z"/>
<path d="M23620 1391 c0 -7 -4 -9 -10 -6 -6 4 -7 -1 -3 -11 4 -12 8 -14 11 -5
3 9 10 7 26 -6 l21 -18 -20 25 c-11 14 -21 27 -22 29 -2 2 -3 -1 -3 -8z"/>
<path d="M23691 1385 c4 -3 19 -8 35 -11 16 -3 26 -2 23 1 -4 3 -19 8 -35 11
-16 3 -26 2 -23 -1z"/>
<path d="M23680 1360 c-9 -6 -10 -10 -3 -10 6 0 15 5 18 10 8 12 4 12 -15 0z"/>
<path d="M23833 1350 c1 -11 5 -20 9 -20 3 0 6 9 5 20 -1 11 -5 20 -9 20 -3 0
-6 -9 -5 -20z"/>
<path d="M23905 1359 c-3 -4 2 -6 10 -5 21 3 28 13 10 13 -9 0 -18 -4 -20 -8z"/>
<path d="M23614 1342 c4 -3 14 -7 22 -8 9 -1 13 0 10 4 -4 3 -14 7 -22 8 -9 1
-13 0 -10 -4z"/>
<path d="M23701 1334 c0 -11 3 -14 6 -6 3 7 2 16 -1 19 -3 4 -6 -2 -5 -13z"/>
<path d="M23594 1326 c1 -8 5 -18 8 -22 4 -3 5 1 4 10 -1 8 -5 18 -8 22 -4 3
-5 -1 -4 -10z"/>
<path d="M23990 1336 c0 -2 8 -10 18 -17 15 -13 16 -12 3 4 -13 16 -21 21 -21
13z"/>
<path d="M23788 1323 c7 -3 16 -2 19 1 4 3 -2 6 -13 5 -11 0 -14 -3 -6 -6z"/>
<path d="M23908 1308 c2 -10 6 -18 7 -18 1 0 5 8 7 18 3 11 0 19 -7 19 -7 0
-10 -8 -7 -19z"/>
<path d="M23815 1310 c-4 -6 -10 -8 -15 -5 -4 3 -14 -3 -21 -13 -12 -15 -12
-16 2 -5 9 7 18 11 21 8 3 -3 11 1 18 10 7 8 10 15 7 15 -3 0 -9 -5 -12 -10z"/>
<path d="M23939 1318 c-5 -18 -6 -38 -1 -34 7 8 12 36 6 36 -2 0 -4 -1 -5 -2z"/>
<path d="M23746 1298 c3 -5 10 -6 15 -3 13 9 11 12 -6 12 -8 0 -12 -4 -9 -9z"/>
<path d="M23987 1299 c7 -7 15 -10 18 -7 3 3 -2 9 -12 12 -14 6 -15 5 -6 -5z"/>
<path d="M23833 1285 c0 -8 4 -12 9 -9 5 3 6 10 3 15 -9 13 -12 11 -12 -6z"/>
<path d="M24020 1284 c0 -1 8 -8 17 -15 9 -8 14 -9 10 -2 -4 6 -1 13 5 16 7 3
3 4 -9 4 -13 -1 -23 -2 -23 -3z"/>
<path d="M23663 1264 c11 -13 14 -23 8 -25 -6 -2 -1 -10 11 -18 20 -13 22 -12
11 1 -7 8 -11 17 -8 20 3 3 -5 13 -17 24 l-23 19 18 -21z"/>
<path d="M23798 1273 c7 -3 16 -2 19 1 4 3 -2 6 -13 5 -11 0 -14 -3 -6 -6z"/>
<path d="M23958 1273 c7 -3 16 -2 19 1 4 3 -2 6 -13 5 -11 0 -14 -3 -6 -6z"/>
<path d="M23559 1253 c-13 -16 -12 -17 4 -4 16 13 21 21 13 21 -2 0 -10 -8
-17 -17z"/>
<path d="M23634 1256 c1 -8 5 -18 8 -22 4 -3 5 1 4 10 -1 8 -5 18 -8 22 -4 3
-5 -1 -4 -10z"/>
<path d="M24059 1253 c-12 -16 -12 -17 2 -6 9 7 20 9 24 5 5 -4 5 -1 1 6 -9
16 -11 15 -27 -5z"/>
<path d="M23708 1243 c7 -3 16 -2 19 1 4 3 -2 6 -13 5 -11 0 -14 -3 -6 -6z"/>
<path d="M23839 1248 c-7 -23 -4 -35 7 -35 9 0 11 4 4 12 -5 7 -7 15 -3 18 3
4 3 7 0 7 -4 0 -7 -1 -8 -2z"/>
<path d="M23867 1233 c3 -7 6 -13 8 -13 2 0 5 6 8 13 3 8 -1 14 -8 14 -7 0
-11 -6 -8 -14z"/>
<path d="M23990 1236 c7 -7 13 -7 20 0 6 6 3 10 -10 10 -13 0 -16 -4 -10 -10z"/>
<path d="M23735 1229 c-4 -6 -5 -12 -2 -15 2 -3 7 2 10 11 7 17 1 20 -8 4z"/>
<path d="M23895 1229 c-4 -6 -5 -12 -2 -15 2 -3 7 2 10 11 7 17 1 20 -8 4z"/>
<path d="M23570 1221 c0 -6 4 -12 8 -15 5 -3 9 1 9 9 0 8 -4 15 -9 15 -4 0 -8
-4 -8 -9z"/>
<path d="M23604 1222 c4 -3 14 -7 22 -8 9 -1 13 0 10 4 -4 3 -14 7 -22 8 -9 1
-13 0 -10 -4z"/>
<path d="M23756 1222 c-3 -5 1 -9 9 -9 8 0 12 4 9 9 -3 4 -7 8 -9 8 -2 0 -6
-4 -9 -8z"/>
<path d="M24056 1218 c3 -5 10 -6 15 -3 13 9 11 12 -6 12 -8 0 -12 -4 -9 -9z"/>
<path d="M23731 1184 c0 -11 3 -14 6 -6 3 7 2 16 -1 19 -3 4 -6 -2 -5 -13z"/>
<path d="M23811 1184 c0 -11 3 -14 6 -6 3 7 2 16 -1 19 -3 4 -6 -2 -5 -13z"/>
<path d="M23893 1183 c0 -8 6 -9 19 -2 10 5 18 11 18 12 0 2 -8 3 -18 3 -10 0
-19 -6 -19 -13z"/>
<path d="M23970 1185 c0 -8 4 -15 10 -15 5 0 7 7 4 15 -4 8 -8 15 -10 15 -2 0
-4 -7 -4 -15z"/>
<path d="M23270 1179 c0 -5 5 -7 10 -4 6 3 10 8 10 11 0 2 -4 4 -10 4 -5 0
-10 -5 -10 -11z"/>
<path d="M23595 1159 c-4 -6 -5 -12 -2 -15 2 -3 7 2 10 11 7 17 1 20 -8 4z"/>
<path d="M23556 1143 c-4 -9 -4 -14 0 -10 4 4 14 1 23 -6 14 -11 15 -10 1 8
-8 11 -15 21 -16 23 -1 2 -5 -5 -8 -15z"/>
<path d="M23615 1149 c-4 -6 -5 -12 -2 -15 2 -3 7 2 10 11 7 17 1 20 -8 4z"/>
<path d="M23654 1140 c0 -13 4 -16 10 -10 7 7 7 13 0 20 -6 6 -10 3 -10 -10z"/>
<path d="M23752 1134 c-7 -8 -8 -14 -3 -14 10 0 25 19 20 25 -2 1 -10 -3 -17
-11z"/>
<path d="M23915 1140 c-3 -5 -1 -10 4 -10 6 0 11 5 11 10 0 6 -2 10 -4 10 -3
0 -8 -4 -11 -10z"/>
<path d="M24310 1140 c0 -5 5 -10 11 -10 5 0 7 5 4 10 -3 6 -8 10 -11 10 -2 0
-4 -4 -4 -10z"/>
<path d="M23719 1128 c-5 -18 -6 -38 -1 -34 7 8 12 36 6 36 -2 0 -4 -1 -5 -2z"/>
<path d="M23799 1128 c-5 -18 -6 -38 -1 -34 7 8 12 36 6 36 -2 0 -4 -1 -5 -2z"/>
<path d="M23828 1123 c6 -2 18 -2 25 0 6 3 1 5 -13 5 -14 0 -19 -2 -12 -5z"/>
<path d="M23873 1113 c0 -9 4 -10 14 -2 7 6 13 12 13 14 0 1 -6 2 -13 2 -8 0
-14 -6 -14 -14z"/>
<path d="M23959 1128 c-6 -21 -5 -37 2 -32 5 3 9 0 9 -7 0 -7 3 -9 6 -6 4 4 2
13 -4 20 -7 8 -9 17 -5 20 3 4 3 7 0 7 -4 0 -7 -1 -8 -2z"/>
<path d="M23987 1115 c3 -8 9 -12 14 -9 12 7 11 11 -5 17 -10 4 -13 1 -9 -8z"/>
<path d="M24036 1122 c-3 -4 4 -9 15 -9 23 -2 25 3 4 10 -8 4 -16 3 -19 -1z"/>
<path d="M23614 1099 c0 -13 3 -15 13 -7 7 6 13 12 13 13 0 2 -6 5 -13 8 -7 3
-13 -3 -13 -14z"/>
<path d="M23030 1101 c0 -6 4 -13 10 -16 6 -3 7 1 4 9 -7 18 -14 21 -14 7z"/>
<path d="M23430 1100 c0 -5 5 -10 11 -10 5 0 7 5 4 10 -3 6 -8 10 -11 10 -2 0
-4 -4 -4 -10z"/>
<path d="M23739 1093 c-13 -16 -12 -17 4 -4 16 13 21 21 13 21 -2 0 -10 -8
-17 -17z"/>
<path d="M23819 1093 c-13 -16 -12 -17 4 -4 14 11 20 11 35 0 15 -13 16 -12 3
4 -7 9 -17 17 -21 17 -4 0 -14 -8 -21 -17z"/>
<path d="M24074 1099 c-4 -7 -3 -9 4 -5 5 3 13 0 15 -6 4 -9 6 -10 6 -1 1 17
-16 25 -25 12z"/>
<path d="M24235 1100 c-3 -5 -1 -10 4 -10 6 0 11 5 11 10 0 6 -2 10 -4 10 -3
0 -8 -4 -11 -10z"/>
<path d="M23565 1080 c-3 -6 1 -7 9 -4 18 7 21 14 7 14 -6 0 -13 -4 -16 -10z"/>
<path d="M23876 1073 c-6 -14 -5 -15 5 -6 7 7 10 15 7 18 -3 3 -9 -2 -12 -12z"/>
<path d="M23714 1072 c4 -7 2 -21 -5 -30 -12 -15 -11 -15 6 0 16 15 17 20 6
30 -11 11 -13 10 -7 0z"/>
<path d="M23634 1056 c1 -8 5 -18 8 -22 4 -3 5 1 4 10 -1 8 -5 18 -8 22 -4 3
-5 -1 -4 -10z"/>
<path d="M23536 1043 c-6 -14 -5 -15 5 -6 7 7 10 15 7 18 -3 3 -9 -2 -12 -12z"/>
<path d="M23593 1033 c0 -9 4 -10 14 -2 7 6 13 12 13 14 0 1 -6 2 -13 2 -8 0
-14 -6 -14 -14z"/>
<path d="M23670 1045 c0 -5 5 -17 10 -25 5 -8 10 -10 10 -5 0 6 -5 17 -10 25
-5 8 -10 11 -10 5z"/>
<path d="M23976 1039 c4 -8 30 -6 38 2 3 3 -5 5 -19 5 -13 0 -22 -3 -19 -7z"/>
<path d="M22665 1020 c-3 -6 1 -7 9 -4 18 7 21 14 7 14 -6 0 -13 -4 -16 -10z"/>
<path d="M23726 1018 c3 -5 10 -6 15 -3 13 9 11 12 -6 12 -8 0 -12 -4 -9 -9z"/>
<path d="M23776 1022 c-3 -5 1 -9 9 -9 8 0 12 4 9 9 -3 4 -7 8 -9 8 -2 0 -6
-4 -9 -8z"/>
<path d="M23850 1019 c0 -5 4 -8 9 -4 6 3 14 -3 20 -12 6 -10 11 -13 11 -7 0
12 -20 34 -32 34 -4 0 -8 -5 -8 -11z"/>
<path d="M23913 1015 c0 -8 4 -12 9 -9 5 3 6 10 3 15 -9 13 -12 11 -12 -6z"/>
<path d="M24019 1013 c-13 -16 -12 -17 4 -4 16 13 21 21 13 21 -2 0 -10 -8
-17 -17z"/>
<path d="M23800 995 c-11 -13 -15 -13 -21 -3 -5 8 -8 5 -6 -9 l1 -23 23 22
c13 12 23 23 23 25 0 7 -8 2 -20 -12z"/>
<path d="M24055 1000 c3 -5 8 -10 11 -10 2 0 4 5 4 10 0 6 -5 10 -11 10 -5 0
-7 -4 -4 -10z"/>
<path d="M23853 977 c0 -12 1 -16 4 -9 4 10 9 10 23 -3 14 -13 20 -14 26 -3 4
7 3 10 -1 5 -5 -4 -18 2 -30 13 -21 20 -21 20 -22 -3z"/>
<path d="M23945 980 c3 -5 11 -10 16 -10 6 0 7 5 4 10 -3 6 -11 10 -16 10 -6
0 -7 -4 -4 -10z"/>
<path d="M8150 976 c0 -2 8 -10 18 -17 15 -13 16 -12 3 4 -13 16 -21 21 -21
13z"/>
<path d="M23635 960 c-3 -6 1 -7 9 -4 18 7 21 14 7 14 -6 0 -13 -4 -16 -10z"/>
<path d="M23670 966 c0 -2 7 -7 16 -10 8 -3 12 -2 9 4 -6 10 -25 14 -25 6z"/>
<path d="M23820 950 c0 -5 -7 -7 -15 -4 -8 4 -15 1 -15 -5 0 -6 6 -10 13 -8 6
1 11 -5 9 -13 -2 -8 0 -12 4 -7 9 9 16 47 9 47 -3 0 -5 -4 -5 -10z"/>
<path d="M23973 932 c-1 -22 0 -24 9 -8 6 10 6 22 2 26 -5 5 -10 -3 -11 -18z"/>
<path d="M23856 938 c3 -5 10 -6 15 -3 13 9 11 12 -6 12 -8 0 -12 -4 -9 -9z"/>
<path d="M23670 920 c0 -5 5 -10 11 -10 5 0 7 5 4 10 -3 6 -8 10 -11 10 -2 0
-4 -4 -4 -10z"/>
<path d="M23695 900 c-3 -5 -1 -10 4 -10 6 0 11 5 11 10 0 6 -2 10 -4 10 -3 0
-8 -4 -11 -10z"/>
<path d="M23908 873 c6 -2 9 -10 6 -15 -4 -7 -2 -8 4 -4 18 11 14 26 -5 25
-11 0 -13 -3 -5 -6z"/>
<path d="M23766 858 c4 -5 9 -7 12 -4 3 3 15 -2 26 -11 21 -18 21 -18 3 3 -16
20 -52 30 -41 12z"/>
<path d="M24233 815 c0 -8 4 -12 9 -9 5 3 6 10 3 15 -9 13 -12 11 -12 -6z"/>
<path d="M24590 820 c0 -5 5 -10 11 -10 5 0 7 5 4 10 -3 6 -8 10 -11 10 -2 0
-4 -4 -4 -10z"/>
<path d="M23200 780 c-9 -6 -10 -10 -3 -10 6 0 15 5 18 10 8 12 4 12 -15 0z"/>
<path d="M24675 740 c-3 -5 -1 -10 4 -10 6 0 11 5 11 10 0 6 -2 10 -4 10 -3 0
-8 -4 -11 -10z"/>
<path d="M23630 659 c0 -5 5 -7 10 -4 6 3 10 8 10 11 0 2 -4 4 -10 4 -5 0 -10
-5 -10 -11z"/>
<path d="M24880 666 c0 -2 8 -10 18 -17 15 -13 16 -12 3 4 -13 16 -21 21 -21
13z"/>
<path d="M11718 613 c7 -3 16 -2 19 1 4 3 -2 6 -13 5 -11 0 -14 -3 -6 -6z"/>
<path d="M11813 613 c37 -2 97 -2 135 0 37 2 6 3 -68 3 -74 0 -105 -1 -67 -3z"/>
<path d="M16743 613 c20 -2 54 -2 75 0 20 2 3 4 -38 4 -41 0 -58 -2 -37 -4z"/>
<path d="M24910 616 c0 -2 8 -10 18 -17 15 -13 16 -12 3 4 -13 16 -21 21 -21
13z"/>
<path d="M10908 603 c23 -2 61 -2 85 0 23 2 4 4 -43 4 -47 0 -66 -2 -42 -4z"/>
<path d="M17513 603 c15 -2 37 -2 50 0 12 2 0 4 -28 4 -27 0 -38 -2 -22 -4z"/>
<path d="M10078 593 c7 -3 16 -2 19 1 4 3 -2 6 -13 5 -11 0 -14 -3 -6 -6z"/>
<path d="M10158 593 c28 -2 76 -2 105 0 28 2 5 3 -53 3 -58 0 -81 -1 -52 -3z"/>
<path d="M17908 593 c18 -2 45 -2 60 0 15 2 0 4 -33 4 -33 0 -45 -2 -27 -4z"/>
<path d="M9573 583 c20 -2 54 -2 75 0 20 2 3 4 -38 4 -41 0 -58 -2 -37 -4z"/>
<path d="M18368 583 c18 -2 45 -2 60 0 15 2 0 4 -33 4 -33 0 -45 -2 -27 -4z"/>
<path d="M18468 583 c6 -2 18 -2 25 0 6 3 1 5 -13 5 -14 0 -19 -2 -12 -5z"/>
<path d="M9028 573 c12 -2 30 -2 40 0 9 3 -1 5 -23 4 -22 0 -30 -2 -17 -4z"/>
<path d="M19103 573 c15 -2 37 -2 50 0 12 2 0 4 -28 4 -27 0 -38 -2 -22 -4z"/>
</g>
</svg>
